<svg xmlns="http://www.w3.org/2000/svg" viewBox="0 0 120 120" role="img" aria-label="우주쓰레기 3등급 — 태양전지판 파편">
  <!-- 3등급: 부서진 인공위성 태양전지판 파편 -->
  <g stroke="#14204A" stroke-width="6.5" stroke-linejoin="round" stroke-linecap="round">
    <!-- 깨진 패널 본체 -->
    <path d="M24 32 L84 20 L96 60 L74 66 L80 88 L34 96 L26 62 Z" fill="#7CC8FF"/>
    <!-- 떨어져 나온 조각 -->
    <path d="M98 76 L112 80 L103 92 Z" fill="#7CC8FF"/>
  </g>
  <!-- 셀 격자 -->
  <g stroke="#14204A" stroke-width="4" stroke-linecap="round" fill="none">
    <path d="M46 27 L54 91"/>
    <path d="M66 23 L74 65"/>
    <path d="M27 52 L91 42"/>
    <path d="M32 76 L76 68"/>
  </g>
  <!-- 경고 스티커 + 반짝임 -->
  <circle cx="38" cy="42" r="5.5" fill="#FF8FA3" stroke="#14204A" stroke-width="4"/>
  <path d="M33 26 Q42 22 51 23" fill="none" stroke="#FFFFFF" stroke-width="5" stroke-linecap="round" opacity="0.9"/>
  <path d="M104 40 L106.5 45.5 L112 48 L106.5 50.5 L104 56 L101.5 50.5 L96 48 L101.5 45.5 Z" fill="#FFD977"/>
</svg>
